<svg width="235" height="143" viewBox="0 0 235 143" fill="none" xmlns="http://www.w3.org/2000/svg">
    <g clip-path="url(#clip0_697_1404)">
        <path
            d="M126.031 29.1804C126.031 29.1804 127.799 24.8351 131.995 22.9407C133.613 22.3023 135.342 21.9896 137.081 22.0207C139.247 22.0485 141.375 22.6 143.283 23.6282C143.569 23.7841 143.846 23.9469 144.113 24.1167C144.781 22.1604 144.9 19.9804 144.424 17.6717C143.1 11.887 136.496 8.15013 130.851 9.88133C127.909 10.7271 126.52 11.9996 124.826 13.7926C125.402 16.223 125.511 18.7408 125.147 21.212C124.905 22.7808 124.455 24.3101 123.807 25.7589C123.325 26.8382 122.736 27.8661 122.048 28.8268C122.845 29.7918 123.813 30.6013 124.904 31.2146C125.349 30.5765 125.722 29.8905 126.015 29.1693L126.031 29.1804Z"
            fill="#BE854B" />
        <path
            d="M123.306 15.4075C123.862 14.8276 124.355 14.2946 124.825 13.8C124.324 11.6528 123.507 9.5918 122.403 7.6839C122.292 7.49224 122.179 7.3018 122.063 7.11385C120.4 4.42184 118.111 2.01053 115.195 0.788801C112.913 -0.167066 110.216 -0.285777 107.959 0.644122L110.284 0.546434C110.284 0.546434 110.549 1.1202 105.828 1.97838C105.78 2.02166 105.733 2.06618 105.686 2.11069C105.307 2.48166 104.36 3.51667 105.387 3.81221C105.548 3.8592 105.626 3.93587 105.642 4.01995C108.393 4.0014 110.406 4.05334 110.44 4.23759C110.536 4.73222 110.954 5.16996 105.552 5.79937C104.896 5.8748 103.983 5.96507 102.902 6.06524C102.695 6.44486 102.489 6.82696 102.285 7.20659C101.781 8.47654 101.626 10.4291 105.002 11.0127C106 11.1846 106.511 11.3206 106.691 11.427C108.016 11.7485 108.039 12.0453 105.885 12.3111C103.425 12.6091 99.4031 12.9158 95.4271 13.2138L92.8333 13.7344C92.8333 13.7344 91.4141 14.7707 93.2149 15.3865C100.289 15.9776 104.916 16.7294 97.4145 17.5369C87.4603 18.6077 83.2978 18.834 89.0154 20.2994C94.5613 21.7214 94.539 22.3867 85.6175 23.6245C85.3531 23.9769 84.9233 24.7238 85.4853 25.3285C86.0344 25.6003 86.6153 25.8022 87.2145 25.9295C89.5082 26.4154 91.8847 25.9715 94.1919 25.5585C96.4992 25.1455 98.9251 24.6706 101.163 25.3656C104.299 26.3388 106.351 28.64 107.665 30.8176C108.633 32.4119 110.19 33.5593 111.998 34.0104C113.806 34.4615 115.719 34.1798 117.32 33.2264L117.389 33.1856C119.221 32.065 120.806 30.5828 122.047 28.8292C121.337 27.9702 120.799 26.983 120.46 25.9208C119.304 22.2334 120.91 18.2355 123.306 15.4075Z"
            fill="#3FA7C9" />
        <path
            d="M125.147 21.2085C125.51 18.7373 125.401 16.2194 124.826 13.7891C124.355 14.2837 123.862 14.8228 123.306 15.3966C120.913 18.2246 119.303 22.2225 120.465 25.9074C120.804 26.9696 121.343 27.9569 122.053 28.8158C122.741 27.8551 123.33 26.8273 123.811 25.7479C124.457 24.3013 124.906 22.7745 125.147 21.2085Z"
            fill="#58694F" />
        <path
            d="M149.66 33.6273C149.18 29.2993 147.362 26.1844 144.113 24.1218C143.248 26.6457 141.473 28.7961 138.875 30.3653C135.821 31.9926 132.219 32.8001 128.764 32.4959C127.406 32.3254 126.094 31.8888 124.903 31.2111C124.803 31.352 124.701 31.4918 124.591 31.6278C123.664 32.7407 122.599 33.7305 121.421 34.5733C119.563 35.9335 117.361 36.37 115.081 36.7249C111.914 37.2196 109.254 38.6898 107.386 40.98C104.893 44.0392 103.83 47.5634 104.229 51.4549C104.792 56.9465 108.495 61.021 113.892 62.0894C115.794 62.4604 117.817 62.3503 119.774 62.2378L120.444 62.2007C121.959 62.1191 124.188 62.1253 126.053 63.1281C126.382 63.305 126.713 63.4904 127.033 63.6697L127.482 63.9171C129.265 65.1529 131.328 65.9236 133.484 66.1593C135.64 66.395 137.821 66.0881 139.828 65.2666C141.835 64.4451 143.606 63.1349 144.98 61.4549C146.354 59.7748 147.287 57.7781 147.694 55.6456C147.84 54.8774 147.917 54.0978 147.924 53.316C147.981 52.007 147.901 50.6957 147.685 49.4035C147.599 48.8631 147.482 48.3252 147.368 47.8046C147.298 47.4831 147.229 47.1578 147.165 46.8289C147.165 46.8289 146.777 44.4263 147.955 41.3287C149.154 39.093 149.981 36.5382 149.66 33.6273Z"
            fill="#0F84A5" />
        <path
            d="M138.875 30.3652C141.469 28.796 143.25 26.6456 144.112 24.1218C143.846 23.9519 143.569 23.7891 143.282 23.6333C141.375 22.605 139.247 22.0535 137.081 22.0258C135.341 21.9947 133.613 22.3073 131.994 22.9458C127.795 24.8402 126.031 29.1855 126.031 29.1855L126.011 29.1707C125.718 29.8918 125.345 30.5779 124.899 31.216C126.09 31.8937 127.402 32.3303 128.761 32.5008C132.219 32.8 135.821 31.9901 138.875 30.3652Z"
            fill="#3F5A49" />
        <path
            d="M105.909 37.5817C106.411 36.6824 106.644 35.6581 106.582 34.63C106.591 34.1996 106.501 33.7729 106.32 33.3823C106.232 33.1357 106.123 32.8966 105.996 32.6675C104.962 30.6334 103.391 28.8082 101.36 27.7299C97.531 25.6859 94.8359 30.8547 95.8388 34.0847C96.5935 36.4564 100.047 39.1187 102.516 39.3104C103.833 39.4155 105.203 38.6958 105.909 37.5817Z"
            fill="#BE854B" />
    </g>
    <g clip-path="url(#clip1_697_1404)">
        <path
            d="M13.1803 85.7988C9.47788 85.7988 5.96556 87.488 3.84723 90.2486V76.6774C3.84723 76.6201 3.82447 76.5652 3.78396 76.5247C3.74345 76.4842 3.68851 76.4614 3.63122 76.4614H0.46308C0.405791 76.4614 0.350846 76.4842 0.310337 76.5247C0.269827 76.5652 0.24707 76.6201 0.24707 76.6774V112.92C0.247074 112.951 0.253761 112.981 0.26668 113.01C0.279598 113.038 0.298447 113.063 0.321952 113.084C0.345508 113.104 0.373154 113.119 0.402986 113.127C0.432819 113.136 0.46413 113.137 0.494761 113.133C2.52381 112.83 4.4535 113.059 6.49551 113.301C7.99462 113.48 9.54556 113.663 11.278 113.663C15.4153 113.663 18.9103 111.988 21.3987 108.82C23.5588 106.071 24.7886 102.298 24.7886 98.4642C24.7886 94.7603 23.7014 91.6008 21.6464 89.3255C19.5641 87.0185 16.6364 85.7988 13.1803 85.7988ZM11.2232 112.704C8.95946 112.704 5.71499 112.271 3.84291 111.312V91.8716C5.58395 89.0519 8.25095 87.4376 11.1714 87.4376C15.7465 87.4376 20.6096 91.5763 20.6096 99.2461C20.6139 105.938 17.3896 112.704 11.2232 112.704Z"
            fill="#0585A6" />
        <path
            d="M30.9574 76.4614H27.7922C27.6729 76.4614 27.5762 76.5581 27.5762 76.6774V112.92C27.5762 113.039 27.6729 113.136 27.7922 113.136H30.9574C31.0767 113.136 31.1735 113.039 31.1735 112.92V76.6774C31.1735 76.5581 31.0767 76.4614 30.9574 76.4614Z"
            fill="#0585A6" />
        <path
            d="M57.4921 86.3259H54.3239C54.2666 86.3259 54.2117 86.3487 54.1712 86.3892C54.1307 86.4297 54.1079 86.4846 54.1079 86.5419V104.711C53.0999 108.321 48.9683 112.332 44.6179 112.332C40.1537 112.332 38.5552 108.846 38.5552 105.584V86.5419C38.5552 86.4846 38.5325 86.4297 38.492 86.3892C38.4515 86.3487 38.3965 86.3259 38.3392 86.3259H35.1711C35.1138 86.3259 35.0589 86.3487 35.0183 86.3892C34.9778 86.4297 34.9551 86.4846 34.9551 86.5419V105.482C34.9551 108.048 35.7716 110.15 37.3139 111.562C38.8159 112.937 41.012 113.663 43.6646 113.663C48.5709 113.663 52.4 110.021 54.1051 107.171V112.92C54.1051 112.977 54.1278 113.032 54.1683 113.072C54.2088 113.113 54.2638 113.136 54.3211 113.136H57.4892C57.5465 113.136 57.6014 113.113 57.6419 113.072C57.6824 113.032 57.7052 112.977 57.7052 112.92V86.5419C57.7052 86.4851 57.6829 86.4306 57.643 86.3902C57.6031 86.3498 57.5489 86.3267 57.4921 86.3259Z"
            fill="#0585A6" />
        <path
            d="M80.5231 96.6051C78.5837 95.3165 76.4251 94.3931 74.1537 93.8805H83.2391C83.4679 93.8906 83.6961 93.8491 83.9067 93.7591C84.1174 93.6691 84.3051 93.5329 84.456 93.3606C84.5844 93.1983 84.6745 93.0091 84.7196 92.8072C84.7648 92.6052 84.7637 92.3957 84.7166 92.1942C83.7633 87.8005 78.88 85.7988 74.7456 85.7988C71.1455 85.7988 67.6216 87.1222 65.0842 89.4292C62.0486 92.1898 60.4443 96.2451 60.4443 101.156C60.4443 105.145 61.8945 108.454 64.6378 110.725C67.0081 112.688 70.2036 113.769 73.6382 113.769C76.4938 113.769 79.3452 112.947 81.4606 111.515C83.9735 109.816 85.3013 107.401 85.3013 104.531C85.2984 100.679 82.702 98.0869 80.5231 96.6051ZM75.5348 112.228C72.5375 112.235 69.6593 111.055 67.5295 108.946C65.1548 106.559 63.9135 103.1 63.9293 98.9394C63.9293 92.8911 67.407 86.7579 74.0529 86.7579C77.3507 86.7579 80.0018 88.6818 80.9652 91.7679C81.0103 91.9025 81.0232 92.0459 81.0029 92.1864C80.9827 92.3269 80.9298 92.4608 80.8486 92.5772C80.7458 92.6951 80.6169 92.7875 80.4721 92.847C80.3274 92.9065 80.1709 92.9314 80.0148 92.9199H66.0894C66.0321 92.9199 65.9772 92.9427 65.9366 92.9832C65.8961 93.0237 65.8734 93.0787 65.8734 93.136V93.6645C65.8734 93.7217 65.8961 93.7767 65.9366 93.8172C65.9772 93.8577 66.0321 93.8805 66.0894 93.8805C71.5328 93.8805 76.1842 94.998 79.5396 97.1105C82.6343 99.0604 84.3379 101.719 84.3379 104.584C84.3393 109.55 79.8031 112.228 75.5348 112.228Z"
            fill="#0585A6" />
        <path
            d="M100.38 76.4614H97.215C97.0957 76.4614 96.999 76.5581 96.999 76.6774V112.92C96.999 113.039 97.0957 113.136 97.215 113.136H100.38C100.5 113.136 100.596 113.039 100.596 112.92V76.6774C100.596 76.5581 100.5 76.4614 100.38 76.4614Z"
            fill="#0585A6" />
        <path
            d="M116.913 99.6206C121.962 98.2251 127.184 96.7836 127.184 92.0818C127.184 87.4491 122.903 85.7988 118.896 85.7988C116.101 85.7988 112.981 86.8069 110.544 88.4745C107.999 90.2285 106.539 92.4663 106.539 94.6135C106.539 94.6708 106.562 94.7257 106.603 94.7662C106.643 94.8067 106.698 94.8295 106.755 94.8295H110.079C110.136 94.8295 110.191 94.8067 110.232 94.7662C110.272 94.7257 110.295 94.6708 110.295 94.6135C110.295 89.5459 114.288 86.8112 118.045 86.8112C121.408 86.8112 123.58 88.8172 123.58 91.9234C123.58 96.3444 119.462 97.8666 115.244 99.0489C114.786 99.177 114.323 99.3038 113.859 99.429C108.55 100.879 103.059 102.377 103.059 107.486C103.059 111.037 106.145 113.716 110.237 113.716C115.211 113.716 119.166 110.43 122.402 107.051C122.214 108.347 122.148 110.425 123.266 111.804C123.986 112.686 125.064 113.134 126.487 113.134C126.544 113.134 126.599 113.111 126.64 113.071C126.68 113.03 126.703 112.975 126.703 112.918V106.272C126.703 105.146 126.031 104.474 124.904 104.474C124.314 104.474 123.594 104.77 122.872 105.312C122.294 105.795 121.743 106.309 121.222 106.853C119.206 108.869 116.695 111.384 112.455 111.384C109.81 111.384 107.127 109.72 107.127 106.536C107.131 102.322 111.883 101.01 116.913 99.6206Z"
            fill="#0585A6" />
        <path
            d="M146.962 107.639C144.37 107.639 141.613 108.923 139.186 110.055C137.288 110.938 135.648 111.701 134.467 111.701C133.229 111.701 132.52 111.184 132.52 110.281C132.52 109.815 133.161 107.63 135.112 105.015C136.925 105.888 139.015 106.33 141.325 106.33C148.86 106.33 152.718 101.693 153.198 97.0947C153.641 92.8508 151.249 87.681 144.977 86.1949C145.679 85.3308 146.637 84.4365 147.972 84.4365C149.225 84.4365 150.496 85.0687 151.27 85.6592C151.296 85.6793 151.327 85.693 151.36 85.6993C151.392 85.7055 151.426 85.7041 151.458 85.6952C151.491 85.6867 151.521 85.6707 151.546 85.6484C151.571 85.6261 151.59 85.5982 151.602 85.567L152.816 82.5068C152.836 82.4567 152.836 82.401 152.817 82.3507C152.798 82.3003 152.761 82.2589 152.713 82.2347C152.031 81.8792 151.274 81.6906 150.505 81.6846C147.783 81.6846 145.437 84.0002 143.924 85.9904C143.067 85.8513 142.2 85.7872 141.332 85.7988C134.298 85.7988 130.731 89.7864 129.739 93.519C128.587 97.8234 130.41 102.221 134.262 104.544C132.303 107.234 131.567 109.481 131.567 110.281C131.567 112.696 134.062 114.191 136.372 114.191C138.407 114.191 140.524 113.327 142.564 112.503C144.605 111.68 146.741 110.814 148.757 110.814C152.995 110.814 154.925 113.55 154.925 116.085C154.925 118.533 153.218 120.3 150.868 120.3C150.133 120.3 149.572 120.039 149.183 119.525C148.391 118.465 148.531 116.599 148.806 115.672C148.814 115.643 148.817 115.613 148.813 115.583C148.809 115.553 148.8 115.524 148.784 115.499C148.768 115.473 148.747 115.451 148.722 115.434C148.698 115.416 148.67 115.404 148.64 115.398L145.265 114.712C145.211 114.702 145.155 114.711 145.109 114.74C145.062 114.768 145.028 114.813 145.013 114.865C144.513 116.639 144.725 118.197 145.607 119.372C146.592 120.669 148.355 121.417 150.444 121.417C153.595 121.417 155.882 119.113 155.882 115.926C155.882 111.202 152.047 107.639 146.962 107.639ZM133.021 93.5997C133.021 90.4704 134.644 87.128 139.154 87.128C142.825 87.128 146.067 89.0995 148.041 92.5355C149.933 95.826 150.22 99.7358 148.761 102.25C147.733 104.017 145.944 104.949 143.585 104.949H143.541C136.653 104.917 133.011 98.3375 133.021 93.5997Z"
            fill="#0585A6" />
        <path
            d="M168.432 85.7988C160.289 85.7988 155.028 91.2711 155.028 99.7314C155.028 108.192 160.289 113.663 168.432 113.663C176.576 113.663 181.837 108.19 181.837 99.7314C181.837 91.2725 176.576 85.7988 168.432 85.7988ZM170.647 112.335C164.713 112.335 158.572 106.431 158.572 96.5662C158.572 93.3836 159.474 90.8059 161.179 89.1297C161.835 88.4809 162.614 87.9695 163.47 87.6255C164.326 87.2815 165.242 87.1119 166.164 87.1266H166.269C174.563 87.1266 178.293 96.343 178.293 102.895C178.293 107.25 176.291 112.335 170.647 112.335Z"
            fill="#0585A6" />
        <path
            d="M195.866 85.7988C187.722 85.7988 182.46 91.2711 182.46 99.7314C182.46 108.192 187.722 113.663 195.866 113.663C204.009 113.663 209.27 108.19 209.27 99.7314C209.27 91.2725 204.008 85.7988 195.866 85.7988ZM198.08 112.335C192.144 112.335 186.005 106.431 186.005 96.5662C186.005 93.3836 186.905 90.8059 188.61 89.1297C189.267 88.4808 190.046 87.9694 190.902 87.6255C191.758 87.2815 192.675 87.1119 193.597 87.1266H193.703C201.994 87.1266 205.726 96.343 205.726 102.895C205.726 107.25 203.723 112.335 198.08 112.335Z"
            fill="#0585A6" />
        <path
            d="M226.041 85.7988C221.136 85.7988 217.305 89.4408 215.6 92.2906V86.5419C215.6 86.4846 215.577 86.4297 215.537 86.3892C215.496 86.3487 215.441 86.3259 215.384 86.3259H212.216C212.159 86.3259 212.104 86.3487 212.063 86.3892C212.023 86.4297 212 86.4846 212 86.5419V112.92C212 112.977 212.023 113.032 212.063 113.072C212.104 113.113 212.159 113.136 212.216 113.136H215.384C215.441 113.136 215.496 113.113 215.537 113.072C215.577 113.032 215.6 112.977 215.6 112.92V94.7488C216.608 91.1386 220.74 87.128 225.09 87.128C229.554 87.128 231.153 90.613 231.153 93.8747V112.92C231.153 112.977 231.176 113.032 231.216 113.072C231.257 113.113 231.312 113.136 231.369 113.136H234.537C234.594 113.136 234.649 113.113 234.69 113.072C234.73 113.032 234.753 112.977 234.753 112.92V93.9813C234.75 88.7812 231.575 85.7988 226.041 85.7988Z"
            fill="#0585A6" />
        <path
            d="M76 130.275H80.4426C82.8907 130.275 84.5713 131.804 84.5713 133.998C84.5713 136.191 82.8936 137.742 80.4426 137.742H77.9542V142.441H76V130.275ZM80.4052 136.008C81.7876 136.008 82.5652 135.215 82.5652 134.016C82.5652 132.818 81.7905 132 80.4052 132H77.957V136.001L80.4052 136.008Z"
            fill="#C0864B" />
        <path
            d="M98.8384 130.072C102.286 130.016 105.309 132.873 105.235 136.358C105.309 139.841 102.286 142.694 98.8384 142.644C95.3548 142.699 92.3869 139.841 92.4603 136.358C92.4056 132.873 95.3736 130.016 98.8384 130.072ZM98.8571 131.859C96.3312 131.859 94.4879 133.777 94.4879 136.339C94.4879 138.931 96.3312 140.855 98.8571 140.855C101.346 140.855 103.226 138.939 103.226 136.339C103.226 133.8 101.346 131.859 98.8571 131.859Z"
            fill="#C0864B" />
        <path
            d="M119.667 130.072C123.115 130.016 126.138 132.873 126.064 136.358C126.138 139.841 123.115 142.694 119.667 142.644C116.184 142.699 113.216 139.841 113.289 136.358C113.235 132.873 116.201 130.016 119.667 130.072ZM119.686 131.859C117.16 131.859 115.317 133.777 115.317 136.339C115.317 138.931 117.16 140.855 119.686 140.855C122.175 140.855 124.055 138.939 124.055 136.339C124.055 133.8 122.175 131.859 119.686 131.859Z"
            fill="#C0864B" />
        <path d="M134.855 130.275H136.81V140.69H142.377V142.441H134.855V130.275Z" fill="#C0864B" />
        <path
            d="M151.166 139.983L152.548 138.932C153.36 140.112 154.336 140.868 155.737 140.868C156.991 140.868 157.839 140.204 157.839 139.172C157.839 138.306 157.323 137.937 156.051 137.347L154.705 136.721C152.936 135.909 151.866 134.969 151.866 133.347C151.866 131.357 153.599 130.048 155.7 130.048C157.415 130.048 158.871 130.914 159.627 132.223L158.263 133.274C157.618 132.315 156.733 131.799 155.7 131.799C154.668 131.799 153.857 132.315 153.857 133.274C153.931 134.232 154.355 134.398 155.553 135.006L156.917 135.633C158.889 136.536 159.829 137.495 159.829 139.098C159.829 141.218 158.097 142.619 155.756 142.619C153.765 142.619 152.106 141.624 151.166 139.983Z"
            fill="#C0864B" />
    </g>
    <defs>
        <clipPath id="clip0_697_1404">
            <rect width="64.5149" height="66.2429" fill="white" transform="translate(85.2139)" />
        </clipPath>
        <clipPath id="clip1_697_1404">
            <rect width="234.5" height="66.1824" fill="white" transform="translate(0.25 76.4614)" />
        </clipPath>
    </defs>
</svg>
    