<svg width="245" height="149" viewBox="0 0 245 149" fill="none" xmlns="http://www.w3.org/2000/svg">
<g clip-path="url(#clip0_150_2510)">
<path d="M131.376 30.3628C131.376 30.3628 133.216 25.8415 137.581 23.8703C139.266 23.206 141.064 22.8807 142.874 22.913C145.128 22.9419 147.342 23.5158 149.327 24.5857C149.625 24.7478 149.913 24.9172 150.19 25.0939C150.886 23.0584 151.009 20.7901 150.514 18.3879C149.137 12.3688 142.265 8.48055 136.391 10.2819C133.33 11.162 131.885 12.4859 130.122 14.3516C130.721 16.8804 130.835 19.5003 130.456 22.0716C130.205 23.704 129.736 25.2952 129.062 26.8026C128.561 27.9257 127.948 28.9952 127.232 29.9948C128.061 30.9989 129.068 31.8412 130.203 32.4794C130.667 31.8154 131.055 31.1016 131.36 30.3512L131.376 30.3628Z" fill="#BE854B"/>
<path d="M128.541 16.0319C129.12 15.4285 129.632 14.8739 130.122 14.3593C129.6 12.1251 128.751 9.98063 127.602 7.99544C127.486 7.79601 127.369 7.59786 127.248 7.40229C125.517 4.60122 123.136 2.09223 120.101 0.821007C117.728 -0.173584 114.921 -0.297103 112.573 0.670468L114.992 0.568822C114.992 0.568822 115.268 1.16583 110.356 2.05878C110.306 2.10381 110.257 2.15013 110.208 2.19645C109.813 2.58245 108.828 3.65939 109.897 3.9669C110.064 4.01579 110.145 4.09557 110.162 4.18306C113.024 4.16376 115.119 4.2178 115.155 4.40951C115.254 4.92418 115.689 5.37966 110.068 6.03457C109.385 6.11305 108.436 6.20698 107.311 6.3112C107.095 6.70621 106.881 7.10379 106.669 7.49879C106.144 8.82019 105.984 10.8518 109.496 11.4591C110.534 11.638 111.067 11.7795 111.253 11.8902C112.632 12.2247 112.656 12.5335 110.415 12.8101C107.855 13.1202 103.67 13.4393 99.5331 13.7494L96.8342 14.2911C96.8342 14.2911 95.3575 15.3693 97.2314 16.0101C104.592 16.6251 109.406 17.4074 101.601 18.2476C91.2436 19.3618 86.9125 19.5973 92.8617 21.122C98.6322 22.6016 98.6091 23.2939 89.3261 24.5818C89.0511 24.9485 88.6038 25.7257 89.1886 26.3548C89.7599 26.6376 90.3644 26.8477 90.9879 26.9802C93.3745 27.4858 95.8472 27.0239 98.248 26.5942C100.649 26.1644 103.173 25.6703 105.502 26.3934C108.765 27.406 110.899 29.8005 112.267 32.0663C113.274 33.7252 114.894 34.9191 116.775 35.3885C118.656 35.8578 120.647 35.5647 122.313 34.5728L122.385 34.5303C124.291 33.3643 125.94 31.822 127.232 29.9974C126.493 29.1036 125.932 28.0763 125.58 26.9712C124.377 23.1343 126.048 18.9745 128.541 16.0319Z" fill="#3FA7C9"/>
<path d="M130.456 22.0676C130.835 19.4964 130.721 16.8765 130.122 14.3477C129.632 14.8623 129.12 15.4233 128.541 16.0203C126.051 18.9629 124.376 23.1227 125.585 26.957C125.937 28.0621 126.498 29.0894 127.237 29.9832C127.953 28.9836 128.566 27.9141 129.067 26.791C129.739 25.2857 130.206 23.6971 130.456 22.0676Z" fill="#58694F"/>
<path d="M155.962 34.9897C155.464 30.4864 153.572 27.2453 150.19 25.0991C149.291 27.7252 147.444 29.9627 144.741 31.5955C141.563 33.2887 137.815 34.1289 134.22 33.8124C132.807 33.635 131.442 33.1808 130.203 32.4756C130.099 32.6222 129.992 32.7676 129.878 32.9092C128.913 34.0671 127.805 35.0971 126.58 35.974C124.646 37.3893 122.356 37.8435 119.983 38.2128C116.688 38.7275 113.919 40.2573 111.976 42.6402C109.381 45.8234 108.276 49.4904 108.691 53.5395C109.277 59.2536 113.13 63.4931 118.745 64.6048C120.725 64.9908 122.83 64.8763 124.866 64.7592L125.563 64.7206C127.139 64.6357 129.459 64.6421 131.399 65.6856C131.741 65.8696 132.086 66.0626 132.419 66.2492L132.886 66.5065C134.742 67.7924 136.888 68.5944 139.131 68.8396C141.375 69.0848 143.644 68.7656 145.732 67.9108C147.821 67.056 149.664 65.6927 151.093 63.9446C152.522 62.1965 153.493 60.1188 153.917 57.9C154.068 57.1007 154.148 56.2895 154.156 55.476C154.216 54.114 154.132 52.7495 153.907 51.405C153.818 50.8427 153.696 50.283 153.578 49.7413C153.505 49.4068 153.433 49.0684 153.366 48.7261C153.366 48.7261 152.963 46.2261 154.189 43.003C155.437 40.6768 156.296 38.0185 155.962 34.9897Z" fill="#0F84A5"/>
<path d="M144.741 31.5955C147.44 29.9627 149.293 27.7252 150.19 25.0991C149.913 24.9224 149.625 24.753 149.327 24.5909C147.342 23.5209 145.128 22.9471 142.874 22.9182C141.064 22.8859 139.266 23.2112 137.581 23.8755C133.212 25.8467 131.376 30.368 131.376 30.368L131.356 30.3526C131.051 31.1029 130.663 31.8167 130.199 32.4807C131.438 33.1859 132.803 33.6402 134.217 33.8175C137.815 34.1289 141.563 33.2861 144.741 31.5955Z" fill="#3F5A49"/>
<path d="M110.439 39.1041C110.961 38.1684 111.204 37.1026 111.14 36.0328C111.149 35.585 111.055 35.141 110.867 34.7346C110.775 34.478 110.662 34.2293 110.529 33.9909C109.454 31.8743 107.819 29.9752 105.706 28.8533C101.722 26.7264 98.9176 32.1047 99.9611 35.4654C100.746 37.9332 104.34 40.7034 106.909 40.9029C108.279 41.0122 109.704 40.2634 110.439 39.1041Z" fill="#BE854B"/>
</g>
<g clip-path="url(#clip1_150_2510)">
<path d="M13.954 89.2747C10.1016 89.2747 6.44699 91.0324 4.24283 93.9048V79.7838C4.24283 79.7242 4.21916 79.6671 4.177 79.6249C4.13485 79.5828 4.07768 79.5591 4.01807 79.5591H0.721587C0.661976 79.5591 0.604806 79.5828 0.562656 79.6249C0.520505 79.6671 0.496826 79.7242 0.496826 79.7838V117.494C0.49683 117.527 0.503788 117.559 0.51723 117.588C0.530672 117.617 0.550284 117.644 0.574741 117.665C0.599252 117.686 0.628018 117.701 0.659059 117.71C0.6901 117.719 0.722679 117.721 0.754552 117.716C2.8658 117.401 4.87366 117.64 6.9984 117.891C8.55824 118.077 10.172 118.267 11.9746 118.267C16.2795 118.267 19.9161 116.525 22.5054 113.228C24.753 110.368 26.0326 106.442 26.0326 102.453C26.0326 98.5993 24.9013 95.3118 22.7631 92.9443C20.5964 90.5439 17.5502 89.2747 13.954 89.2747ZM11.9177 117.269C9.56217 117.269 6.18626 116.82 4.23834 115.822V95.5935C6.04991 92.6596 8.82495 90.9799 11.8637 90.9799C16.6241 90.9799 21.6842 95.2863 21.6842 103.267C21.6887 110.23 18.3338 117.269 11.9177 117.269Z" fill="#0585A6"/>
<path d="M32.4518 79.5591H29.1584C29.0342 79.5591 28.9336 79.6597 28.9336 79.7838V117.494C28.9336 117.618 29.0342 117.719 29.1584 117.719H32.4518C32.576 117.719 32.6766 117.618 32.6766 117.494V79.7838C32.6766 79.6597 32.576 79.5591 32.4518 79.5591Z" fill="#0585A6"/>
<path d="M60.0616 89.8232H56.7651C56.7055 89.8232 56.6483 89.8469 56.6062 89.8891C56.564 89.9312 56.5403 89.9884 56.5403 90.048V108.953C55.4915 112.71 51.1925 116.883 46.6659 116.883C42.0208 116.883 40.3576 113.255 40.3576 109.861V90.048C40.3576 89.9884 40.3339 89.9312 40.2918 89.8891C40.2496 89.8469 40.1924 89.8232 40.1328 89.8232H36.8363C36.7767 89.8232 36.7196 89.8469 36.6774 89.8891C36.6353 89.9312 36.6116 89.9884 36.6116 90.048V109.755C36.6116 112.425 37.4612 114.613 39.066 116.081C40.6288 117.512 42.9139 118.267 45.6739 118.267C50.779 118.267 54.7632 114.478 56.5373 111.513V117.494C56.5373 117.554 56.561 117.611 56.6032 117.653C56.6453 117.695 56.7025 117.719 56.7621 117.719H60.0586C60.1182 117.719 60.1754 117.695 60.2175 117.653C60.2597 117.611 60.2834 117.554 60.2834 117.494V90.048C60.2834 89.9889 60.2601 89.9322 60.2186 89.8901C60.1771 89.8481 60.1207 89.824 60.0616 89.8232Z" fill="#0585A6"/>
<path d="M84.0255 100.519C82.0075 99.1782 79.7615 98.2174 77.3981 97.6839H86.8515C87.0896 97.6944 87.327 97.6513 87.5462 97.5577C87.7654 97.464 87.9607 97.3223 88.1177 97.143C88.2513 96.9742 88.3451 96.7773 88.392 96.5672C88.439 96.357 88.4379 96.139 88.3889 95.9293C87.3969 91.3577 82.3159 89.2749 78.0139 89.2749C74.2679 89.2749 70.6013 90.6519 67.9612 93.0524C64.8025 95.9248 63.1333 100.144 63.1333 105.254C63.1333 109.404 64.6422 112.848 67.4967 115.211C69.963 117.253 73.288 118.378 76.8617 118.378C79.833 118.378 82.7998 117.523 85.001 116.033C87.6157 114.265 88.9972 111.752 88.9972 108.766C88.9942 104.758 86.2926 102.061 84.0255 100.519ZM78.8351 116.775C75.7164 116.782 72.7216 115.555 70.5054 113.36C68.0346 110.876 66.743 107.277 66.7594 102.948C66.7594 96.6545 70.3781 90.2728 77.2932 90.2728C80.7246 90.2728 83.4831 92.2747 84.4855 95.4858C84.5324 95.6259 84.5458 95.775 84.5248 95.9212C84.5037 96.0675 84.4487 96.2067 84.3642 96.3279C84.2572 96.4506 84.1231 96.5467 83.9725 96.6086C83.8219 96.6705 83.659 96.6965 83.4966 96.6845H69.007C68.9474 96.6845 68.8903 96.7082 68.8481 96.7503C68.806 96.7925 68.7823 96.8497 68.7823 96.9093V97.4592C68.7823 97.5188 68.806 97.576 68.8481 97.6181C68.8903 97.6603 68.9474 97.6839 69.007 97.6839C74.671 97.6839 79.5109 98.8467 83.0021 101.045C86.2222 103.074 87.9948 105.84 87.9948 108.822C87.9963 113.988 83.2763 116.775 78.8351 116.775Z" fill="#0585A6"/>
<path d="M104.687 79.5591H101.393C101.269 79.5591 101.169 79.6597 101.169 79.7838V117.494C101.169 117.618 101.269 117.719 101.393 117.719H104.687C104.811 117.719 104.912 117.618 104.912 117.494V79.7838C104.912 79.6597 104.811 79.5591 104.687 79.5591Z" fill="#0585A6"/>
<path d="M121.89 103.657C127.144 102.205 132.577 100.705 132.577 95.8124C132.577 90.9921 128.122 89.2749 123.954 89.2749C121.045 89.2749 117.798 90.3238 115.263 92.0589C112.615 93.884 111.096 96.2125 111.096 98.4466C111.096 98.5062 111.119 98.5634 111.162 98.6056C111.204 98.6477 111.261 98.6714 111.321 98.6714H114.779C114.838 98.6714 114.896 98.6477 114.938 98.6056C114.98 98.5634 115.004 98.5062 115.004 98.4466C115.004 93.1738 119.159 90.3283 123.068 90.3283C126.567 90.3283 128.826 92.4156 128.826 95.6476C128.826 100.248 124.542 101.832 120.154 103.062C119.677 103.195 119.195 103.327 118.712 103.457C113.188 104.966 107.474 106.525 107.474 111.841C107.474 115.536 110.685 118.323 114.944 118.323C120.119 118.323 124.234 114.904 127.601 111.388C127.406 112.737 127.337 114.899 128.5 116.333C129.249 117.252 130.371 117.718 131.852 117.718C131.911 117.718 131.968 117.694 132.011 117.652C132.053 117.61 132.076 117.552 132.076 117.493V110.578C132.076 109.406 131.377 108.706 130.205 108.706C129.591 108.706 128.841 109.015 128.091 109.578C127.489 110.081 126.916 110.616 126.373 111.182C124.276 113.279 121.663 115.897 117.251 115.897C114.499 115.897 111.707 114.165 111.707 110.852C111.712 106.468 116.656 105.103 121.89 103.657Z" fill="#0585A6"/>
<path d="M153.156 111.999C150.459 111.999 147.589 113.336 145.065 114.514C143.09 115.432 141.383 116.226 140.154 116.226C138.866 116.226 138.128 115.688 138.128 114.749C138.128 114.263 138.795 111.99 140.826 109.269C142.712 110.177 144.886 110.637 147.29 110.637C155.131 110.637 159.145 105.812 159.644 101.028C160.106 96.6123 157.617 91.233 151.09 89.6867C151.821 88.7876 152.817 87.8571 154.206 87.8571C155.51 87.8571 156.833 88.5149 157.638 89.1293C157.665 89.1502 157.697 89.1645 157.731 89.171C157.765 89.1775 157.801 89.176 157.834 89.1667C157.868 89.1579 157.899 89.1413 157.925 89.1181C157.951 89.0949 157.971 89.0659 157.984 89.0334L159.247 85.8492C159.268 85.7971 159.268 85.7391 159.248 85.6867C159.228 85.6343 159.189 85.5913 159.139 85.566C158.429 85.1961 157.642 85 156.842 84.9937C154.01 84.9937 151.569 87.4031 149.994 89.4739C149.103 89.3292 148.2 89.2625 147.297 89.2746C139.979 89.2746 136.267 93.4237 135.235 97.3075C134.036 101.786 135.933 106.362 139.942 108.779C137.902 111.578 137.137 113.916 137.137 114.749C137.137 117.262 139.733 118.817 142.137 118.817C144.254 118.817 146.457 117.918 148.58 117.061C150.703 116.204 152.925 115.303 155.023 115.303C159.433 115.303 161.441 118.15 161.441 120.788C161.441 123.335 159.665 125.173 157.22 125.173C156.455 125.173 155.871 124.902 155.466 124.367C154.642 123.264 154.788 121.322 155.074 120.357C155.083 120.328 155.086 120.296 155.082 120.265C155.078 120.234 155.068 120.204 155.051 120.178C155.035 120.151 155.013 120.128 154.987 120.11C154.961 120.092 154.932 120.079 154.902 120.073L151.389 119.36C151.334 119.348 151.276 119.358 151.227 119.388C151.179 119.417 151.143 119.464 151.127 119.518C150.607 121.364 150.827 122.986 151.746 124.208C152.771 125.557 154.605 126.336 156.779 126.336C160.058 126.336 162.437 123.939 162.437 120.623C162.437 115.706 158.447 111.999 153.156 111.999ZM138.65 97.3914C138.65 94.1354 140.339 90.6576 145.032 90.6576C148.851 90.6576 152.224 92.7089 154.278 96.2841C156.247 99.708 156.545 103.776 155.027 106.392C153.958 108.231 152.097 109.2 149.642 109.2H149.596C142.429 109.167 138.639 102.321 138.65 97.3914Z" fill="#0585A6"/>
<path d="M175.495 89.2749C167.022 89.2749 161.548 94.9688 161.548 103.772C161.548 112.575 167.022 118.268 175.495 118.268C183.969 118.268 189.443 112.574 189.443 103.772C189.443 94.9703 183.969 89.2749 175.495 89.2749ZM177.8 116.886C171.625 116.886 165.236 110.743 165.236 100.478C165.236 97.167 166.174 94.4849 167.948 92.7407C168.631 92.0656 169.441 91.5335 170.332 91.1756C171.222 90.8177 172.176 90.6412 173.136 90.6564H173.245C181.874 90.6564 185.755 100.246 185.755 107.064C185.755 111.595 183.672 116.886 177.8 116.886Z" fill="#0585A6"/>
<path d="M204.04 89.2749C195.567 89.2749 190.092 94.9688 190.092 103.772C190.092 112.575 195.567 118.268 204.04 118.268C212.514 118.268 217.987 112.574 217.987 103.772C217.987 94.9703 212.512 89.2749 204.04 89.2749ZM206.345 116.886C200.168 116.886 193.781 110.743 193.781 100.478C193.781 97.167 194.717 94.4849 196.491 92.7407C197.174 92.0655 197.985 91.5334 198.876 91.1755C199.767 90.8176 200.72 90.6412 201.68 90.6564H201.79C210.417 90.6564 214.3 100.246 214.3 107.064C214.3 111.595 212.215 116.886 206.345 116.886Z" fill="#0585A6"/>
<path d="M235.438 89.2749C230.334 89.2749 226.348 93.0644 224.574 96.0297V90.0481C224.574 89.9885 224.55 89.9313 224.508 89.8892C224.466 89.847 224.409 89.8233 224.349 89.8233H221.053C220.993 89.8233 220.936 89.847 220.894 89.8892C220.852 89.9313 220.828 89.9885 220.828 90.0481V117.494C220.828 117.554 220.852 117.611 220.894 117.653C220.936 117.695 220.993 117.719 221.053 117.719H224.349C224.409 117.719 224.466 117.695 224.508 117.653C224.55 117.611 224.574 117.554 224.574 117.494V98.5875C225.623 94.831 229.922 90.6579 234.449 90.6579C239.094 90.6579 240.757 94.2841 240.757 97.6779V117.494C240.757 117.554 240.781 117.611 240.823 117.653C240.865 117.695 240.922 117.719 240.982 117.719H244.278C244.338 117.719 244.395 117.695 244.437 117.653C244.479 117.611 244.503 117.554 244.503 117.494V97.7888C244.5 92.3781 241.196 89.2749 235.438 89.2749Z" fill="#0585A6"/>
<path d="M47.2502 135.553H51.8728C54.4201 135.553 56.1687 137.144 56.1687 139.426C56.1687 141.708 54.4231 143.322 51.8728 143.322H49.2836V148.211H47.2502V135.553ZM51.8339 141.518C53.2723 141.518 54.0815 140.692 54.0815 139.446C54.0815 138.199 53.2753 137.348 51.8339 137.348H49.2866V141.51L51.8339 141.518Z" fill="#C0864B"/>
<path d="M71.0133 135.342C74.6005 135.283 77.7456 138.256 77.6692 141.882C77.7456 145.507 74.6005 148.475 71.0133 148.423C67.3887 148.48 64.3005 145.507 64.3769 141.882C64.3199 138.256 67.4081 135.283 71.0133 135.342ZM71.0328 137.201C68.4046 137.201 66.4866 139.197 66.4866 141.863C66.4866 144.56 68.4046 146.562 71.0328 146.562C73.622 146.562 75.5789 144.567 75.5789 141.863C75.5789 139.221 73.622 137.201 71.0328 137.201Z" fill="#C0864B"/>
<path d="M92.6864 135.342C96.2736 135.283 99.4187 138.256 99.3423 141.882C99.4187 145.507 96.2736 148.475 92.6864 148.423C89.0618 148.48 85.9736 145.507 86.05 141.882C85.993 138.256 89.0797 135.283 92.6864 135.342ZM92.7059 137.201C90.0777 137.201 88.1597 139.197 88.1597 141.863C88.1597 144.56 90.0777 146.562 92.7059 146.562C95.2951 146.562 97.252 144.567 97.252 141.863C97.252 139.221 95.2951 137.201 92.7059 137.201Z" fill="#C0864B"/>
<path d="M108.49 135.553H110.523V146.389H116.316V148.211H108.49V135.553Z" fill="#C0864B"/>
<path d="M151.188 135.553H159.514V137.375H153.22V140.616H157.958V142.381H153.22V146.389H159.741V148.211H151.188V135.553Z" fill="#C0864B"/>
<path d="M171.791 137.375H167.533V135.553H178.101V137.375H173.823V148.211H171.791V137.375Z" fill="#C0864B"/>
<path d="M192.309 135.342C194.63 135.342 196.644 136.473 197.738 138.256L196.204 139.389C195.304 137.988 193.998 137.201 192.329 137.201C189.739 137.201 187.764 139.197 187.764 141.882C187.764 144.567 189.739 146.562 192.329 146.562C193.998 146.562 195.301 145.775 196.204 144.376L197.738 145.507C196.664 147.291 194.669 148.423 192.309 148.423C188.704 148.48 185.577 145.507 185.655 141.882C185.577 138.256 188.704 135.283 192.309 135.342Z" fill="#C0864B"/>
<path d="M125.461 145.654L126.899 144.561C127.743 145.788 128.76 146.575 130.217 146.575C131.522 146.575 132.404 145.884 132.404 144.81C132.404 143.909 131.867 143.525 130.544 142.912L129.143 142.259C127.302 141.416 126.19 140.437 126.19 138.75C126.19 136.678 127.993 135.316 130.179 135.316C131.963 135.316 133.478 136.218 134.264 137.58L132.845 138.673C132.174 137.675 131.253 137.138 130.179 137.138C129.105 137.138 128.261 137.675 128.261 138.673C128.338 139.67 128.779 139.843 130.026 140.476L131.445 141.128C133.497 142.068 134.475 143.065 134.475 144.734C134.475 146.939 132.672 148.397 130.237 148.397C128.165 148.397 126.439 147.361 125.461 145.654Z" fill="#C0864B"/>
</g>
<defs>
<clipPath id="clip0_150_2510">
<rect width="67.1285" height="68.9266" fill="white" transform="translate(88.9058)"/>
</clipPath>
<clipPath id="clip1_150_2510">
<rect width="244" height="68.8636" fill="white" transform="translate(0.5 79.5591)"/>
</clipPath>
</defs>
</svg>
