<svg width="264" height="72" viewBox="0 0 264 72" fill="none" xmlns="http://www.w3.org/2000/svg">
    <g clip-path="url(#clip0_697_1337)">
        <path
            d="M87.3131 19.6814C84.7728 19.6814 82.363 20.8403 80.9096 22.7344V13.4231C80.9096 13.3838 80.8939 13.3461 80.8662 13.3183C80.8384 13.2905 80.8007 13.2749 80.7614 13.2749H78.5877C78.5484 13.2749 78.5107 13.2905 78.4829 13.3183C78.4551 13.3461 78.4395 13.3838 78.4395 13.4231V38.2892C78.4395 38.3106 78.444 38.3317 78.4529 38.3511C78.4618 38.3705 78.4747 38.3878 78.4908 38.4018C78.507 38.4157 78.526 38.4258 78.5464 38.4316C78.5669 38.4374 78.5884 38.4387 78.6094 38.4354C80.0015 38.2279 81.3255 38.385 82.7266 38.551C83.7551 38.6735 84.8192 38.799 86.0079 38.799C88.8465 38.799 91.2445 37.6499 92.9518 35.4762C94.4339 33.5901 95.2777 31.0014 95.2777 28.3712C95.2777 25.83 94.5317 23.6622 93.1218 22.1011C91.6931 20.5182 89.6844 19.6814 87.3131 19.6814ZM85.9703 38.141C84.4171 38.141 82.1911 37.8446 80.9066 37.1865V23.848C82.1011 21.9134 83.931 20.8058 85.9348 20.8058C89.0738 20.8058 92.4104 23.6454 92.4104 28.9077C92.4133 33.4992 90.2011 38.141 85.9703 38.141Z"
            fill="#0585A6" />
        <path
            d="M99.5104 13.2749H97.3386C97.2568 13.2749 97.1904 13.3413 97.1904 13.4231V38.2892C97.1904 38.371 97.2568 38.4374 97.3386 38.4374H99.5104C99.5922 38.4374 99.6586 38.371 99.6586 38.2892V13.4231C99.6586 13.3413 99.5922 13.2749 99.5104 13.2749Z"
            fill="#0585A6" />
        <path
            d="M117.716 20.043H115.542C115.503 20.043 115.465 20.0586 115.437 20.0864C115.41 20.1142 115.394 20.1519 115.394 20.1912V32.6573C114.702 35.1343 111.868 37.886 108.883 37.886C105.82 37.886 104.723 35.494 104.723 33.2561V20.1912C104.723 20.1519 104.707 20.1142 104.68 20.0864C104.652 20.0586 104.614 20.043 104.575 20.043H102.401C102.362 20.043 102.324 20.0586 102.296 20.0864C102.269 20.1142 102.253 20.1519 102.253 20.1912V33.1859C102.253 34.9466 102.813 36.3892 103.871 37.3574C104.902 38.301 106.409 38.799 108.229 38.799C111.595 38.799 114.222 36.3002 115.392 34.3449V38.2892C115.392 38.3285 115.408 38.3662 115.435 38.394C115.463 38.4218 115.501 38.4374 115.54 38.4374H117.714C117.753 38.4374 117.791 38.4218 117.819 38.394C117.846 38.3662 117.862 38.3285 117.862 38.2892V20.1912C117.862 20.1522 117.847 20.1148 117.819 20.0871C117.792 20.0593 117.755 20.0435 117.716 20.043Z"
            fill="#0585A6" />
        <path
            d="M133.517 27.0959C132.187 26.2118 130.706 25.5783 129.147 25.2265H135.381C135.538 25.2335 135.694 25.205 135.839 25.1433C135.984 25.0815 136.112 24.9881 136.216 24.8699C136.304 24.7585 136.366 24.6287 136.397 24.4901C136.428 24.3516 136.427 24.2078 136.395 24.0695C135.741 21.055 132.39 19.6816 129.553 19.6816C127.083 19.6816 124.666 20.5897 122.925 22.1725C120.842 24.0666 119.741 26.8489 119.741 30.2181C119.741 32.955 120.736 35.2255 122.618 36.7837C124.245 38.1304 126.437 38.8724 128.794 38.8724C130.753 38.8724 132.709 38.3082 134.161 37.3261C135.885 36.1602 136.796 34.5033 136.796 32.5341C136.794 29.8911 135.012 28.1126 133.517 27.0959ZM130.095 37.8152C128.038 37.8199 126.064 37.0104 124.602 35.5634C122.973 33.9253 122.121 31.552 122.132 28.6975C122.132 24.5478 124.518 20.3397 129.078 20.3397C131.341 20.3397 133.16 21.6597 133.821 23.7771C133.852 23.8695 133.861 23.9678 133.847 24.0642C133.833 24.1606 133.797 24.2525 133.741 24.3324C133.67 24.4133 133.582 24.4766 133.483 24.5175C133.383 24.5583 133.276 24.5754 133.169 24.5675H123.614C123.575 24.5675 123.537 24.5831 123.51 24.6109C123.482 24.6387 123.466 24.6764 123.466 24.7157V25.0783C123.466 25.1176 123.482 25.1553 123.51 25.1831C123.537 25.2109 123.575 25.2265 123.614 25.2265C127.349 25.2265 130.541 25.9933 132.843 27.4427C134.966 28.7805 136.135 30.6045 136.135 32.5707C136.136 35.9774 133.023 37.8152 130.095 37.8152Z"
            fill="#0585A6" />
        <path
            d="M147.142 13.2749H144.97C144.889 13.2749 144.822 13.3413 144.822 13.4231V38.2892C144.822 38.371 144.889 38.4374 144.97 38.4374H147.142C147.224 38.4374 147.29 38.371 147.29 38.2892V13.4231C147.29 13.3413 147.224 13.2749 147.142 13.2749Z"
            fill="#0585A6" />
        <path
            d="M158.485 29.1649C161.95 28.2075 165.532 27.2184 165.532 23.9925C165.532 20.8139 162.595 19.6816 159.846 19.6816C157.928 19.6816 155.787 20.3733 154.115 21.5174C152.369 22.7209 151.368 24.2563 151.368 25.7295C151.368 25.7688 151.383 25.8065 151.411 25.8343C151.439 25.862 151.476 25.8777 151.516 25.8777H153.796C153.836 25.8777 153.873 25.862 153.901 25.8343C153.929 25.8065 153.944 25.7688 153.944 25.7295C153.944 22.2525 156.684 20.3762 159.262 20.3762C161.569 20.3762 163.059 21.7526 163.059 23.8838C163.059 26.9171 160.234 27.9614 157.34 28.7726C157.026 28.8606 156.708 28.9475 156.39 29.0335C152.747 30.0284 148.979 31.056 148.979 34.5616C148.979 36.9981 151.097 38.8359 153.905 38.8359C157.318 38.8359 160.031 36.5811 162.251 34.2632C162.122 35.1524 162.077 36.5782 162.844 37.5237C163.338 38.1294 164.078 38.4367 165.054 38.4367C165.093 38.4367 165.131 38.4211 165.159 38.3933C165.187 38.3655 165.202 38.3278 165.202 38.2885V33.7287C165.202 32.956 164.741 32.4946 163.968 32.4946C163.563 32.4946 163.069 32.6981 162.574 33.0696C162.177 33.4009 161.799 33.7539 161.442 34.1268C160.058 35.5101 158.335 37.2362 155.426 37.2362C153.611 37.2362 151.771 36.094 151.771 33.9095C151.774 31.0185 155.034 30.1183 158.485 29.1649Z"
            fill="#0585A6" />
        <path
            d="M179.102 34.6659C177.324 34.6659 175.432 35.5472 173.767 36.3238C172.465 36.9295 171.339 37.4532 170.529 37.4532C169.679 37.4532 169.193 37.0985 169.193 36.479C169.193 36.1588 169.633 34.66 170.972 32.8657C172.216 33.4644 173.649 33.7678 175.234 33.7678C180.405 33.7678 183.051 30.5863 183.381 27.4315C183.685 24.5197 182.044 20.9726 177.74 19.953C178.222 19.3601 178.879 18.7466 179.795 18.7466C180.654 18.7466 181.527 19.1803 182.058 19.5854C182.076 19.5992 182.097 19.6086 182.119 19.6129C182.142 19.6172 182.165 19.6162 182.187 19.6101C182.209 19.6043 182.23 19.5933 182.247 19.578C182.264 19.5627 182.277 19.5436 182.286 19.5222L183.119 17.4226C183.132 17.3882 183.132 17.35 183.119 17.3154C183.106 17.2809 183.081 17.2525 183.048 17.2358C182.58 16.9919 182.061 16.8626 181.533 16.8584C179.665 16.8584 178.056 18.4472 177.018 19.8127C176.43 19.7172 175.835 19.6733 175.239 19.6812C170.413 19.6812 167.966 22.4171 167.285 24.9781C166.495 27.9314 167.746 30.9489 170.389 32.5426C169.044 34.3883 168.539 35.9296 168.539 36.479C168.539 38.1359 170.251 39.1615 171.836 39.1615C173.232 39.1615 174.685 38.5687 176.085 38.0035C177.485 37.4384 178.95 36.8445 180.333 36.8445C183.241 36.8445 184.565 38.7218 184.565 40.4608C184.565 42.1405 183.394 43.3528 181.782 43.3528C181.278 43.3528 180.893 43.174 180.626 42.8212C180.082 42.094 180.178 40.8135 180.367 40.1772C180.373 40.1575 180.375 40.1368 180.372 40.1164C180.37 40.0959 180.363 40.0763 180.352 40.0587C180.341 40.041 180.327 40.0258 180.31 40.0139C180.293 40.002 180.274 39.9937 180.253 39.9895L177.937 39.5192C177.901 39.5117 177.863 39.5184 177.83 39.5378C177.798 39.5572 177.775 39.5879 177.764 39.6239C177.422 40.8412 177.567 41.9102 178.173 42.7165C178.848 43.6057 180.058 44.1195 181.491 44.1195C183.653 44.1195 185.222 42.5386 185.222 40.3521C185.222 37.1103 182.591 34.6659 179.102 34.6659ZM169.537 25.0335C169.537 22.8865 170.651 20.5932 173.745 20.5932C176.264 20.5932 178.488 21.9458 179.842 24.3033C181.141 26.561 181.337 29.2435 180.336 30.9686C179.631 32.181 178.404 32.8202 176.785 32.8202H176.755C172.029 32.7985 169.53 28.2841 169.537 25.0335Z"
            fill="#0585A6" />
        <path
            d="M193.833 19.6816C188.246 19.6816 184.637 23.4362 184.637 29.241C184.637 35.0457 188.246 38.7993 193.833 38.7993C199.421 38.7993 203.03 35.0447 203.03 29.241C203.03 23.4372 199.421 19.6816 193.833 19.6816ZM195.353 37.8883C191.281 37.8883 187.068 33.8373 187.068 27.0692C187.068 24.8857 187.687 23.1171 188.857 21.967C189.307 21.5218 189.841 21.1709 190.428 20.9349C191.016 20.6989 191.644 20.5826 192.277 20.5926H192.349C198.04 20.5926 200.599 26.9161 200.599 31.4117C200.599 34.3995 199.225 37.8883 195.353 37.8883Z"
            fill="#0585A6" />
        <path
            d="M212.655 19.6816C207.067 19.6816 203.457 23.4362 203.457 29.241C203.457 35.0457 207.067 38.7993 212.655 38.7993C218.242 38.7993 221.851 35.0447 221.851 29.241C221.851 23.4372 218.241 19.6816 212.655 19.6816ZM214.174 37.8883C210.102 37.8883 205.89 33.8373 205.89 27.0692C205.89 24.8857 206.507 23.1171 207.677 21.967C208.127 21.5218 208.662 21.1709 209.249 20.9349C209.837 20.6989 210.465 20.5825 211.099 20.5926H211.171C216.86 20.5926 219.42 26.9161 219.42 31.4117C219.42 34.3995 218.046 37.8883 214.174 37.8883Z"
            fill="#0585A6" />
        <path
            d="M233.359 19.6816C229.994 19.6816 227.366 22.1804 226.196 24.1357V20.1915C226.196 20.1522 226.18 20.1145 226.152 20.0867C226.124 20.0589 226.087 20.0433 226.047 20.0433H223.874C223.834 20.0433 223.797 20.0589 223.769 20.0867C223.741 20.1145 223.726 20.1522 223.726 20.1915V38.2895C223.726 38.3288 223.741 38.3665 223.769 38.3943C223.797 38.4221 223.834 38.4377 223.874 38.4377H226.047C226.087 38.4377 226.124 38.4221 226.152 38.3943C226.18 38.3665 226.196 38.3288 226.196 38.2895V25.8223C226.887 23.3453 229.722 20.5936 232.707 20.5936C235.77 20.5936 236.867 22.9847 236.867 25.2226V38.2895C236.867 38.3288 236.882 38.3665 236.91 38.3943C236.938 38.4221 236.975 38.4377 237.015 38.4377H239.188C239.228 38.4377 239.265 38.4221 239.293 38.3943C239.321 38.3665 239.337 38.3288 239.337 38.2895V25.2957C239.335 21.7279 237.156 19.6816 233.359 19.6816Z"
            fill="#0585A6" />
        <path
            d="M130 50.1968H133.048C134.728 50.1968 135.881 51.2461 135.881 52.7509C135.881 54.2557 134.73 55.3198 133.048 55.3198H131.341V58.5438H130V50.1968ZM133.022 54.1302C133.971 54.1302 134.504 53.5858 134.504 52.7637C134.504 51.9417 133.973 51.3805 133.022 51.3805H131.343V54.1252L133.022 54.1302Z"
            fill="#C0864B" />
        <path
            d="M145.669 50.0582C148.034 50.0196 150.108 51.9799 150.058 54.371C150.108 56.7611 148.034 58.7184 145.669 58.6838C143.279 58.7213 141.243 56.7611 141.293 54.371C141.255 51.9799 143.292 50.0196 145.669 50.0582ZM145.682 51.2843C143.949 51.2843 142.684 52.6004 142.684 54.3581C142.684 56.1366 143.949 57.4566 145.682 57.4566C147.389 57.4566 148.68 56.1416 148.68 54.3581C148.68 52.6162 147.389 51.2843 145.682 51.2843Z"
            fill="#C0864B" />
        <path
            d="M159.96 50.0582C162.325 50.0196 164.399 51.9799 164.349 54.371C164.399 56.7611 162.325 58.7184 159.96 58.6838C157.57 58.7213 155.534 56.7611 155.584 54.371C155.546 51.9799 157.582 50.0196 159.96 50.0582ZM159.973 51.2843C158.24 51.2843 156.975 52.6004 156.975 54.3581C156.975 56.1366 158.24 57.4566 159.973 57.4566C161.68 57.4566 162.971 56.1416 162.971 54.3581C162.971 52.6162 161.68 51.2843 159.973 51.2843Z"
            fill="#C0864B" />
        <path d="M170.381 50.1968H171.722V57.3423H175.541V58.5438H170.381V50.1968Z" fill="#C0864B" />
        <path
            d="M181.571 56.8577L182.52 56.1368C183.076 56.9463 183.747 57.4648 184.708 57.4648C185.568 57.4648 186.149 57.0095 186.149 56.3013C186.149 55.7069 185.795 55.4539 184.923 55.0492L184 54.6192C182.785 54.0627 182.052 53.4178 182.052 52.3048C182.052 50.9389 183.241 50.041 184.682 50.041C185.859 50.041 186.858 50.6354 187.376 51.5334L186.44 52.2542C185.998 51.5966 185.391 51.2425 184.682 51.2425C183.974 51.2425 183.418 51.5966 183.418 52.2542C183.468 52.9119 183.759 53.0257 184.581 53.443L185.517 53.873C186.87 54.4927 187.515 55.1504 187.515 56.2507C187.515 57.7051 186.327 58.6662 184.72 58.6662C183.355 58.6662 182.216 57.9833 181.571 56.8577Z"
            fill="#C0864B" />
    </g>
    <g clip-path="url(#clip1_697_1337)">
        <path
            d="M52.255 33.2722C52.255 33.2722 53.4785 30.2649 56.3831 28.9539C57.5035 28.512 58.7 28.2956 59.904 28.3171C61.4037 28.3363 62.8766 28.718 64.1971 29.4297C64.3955 29.5375 64.587 29.6502 64.7717 29.7677C65.2343 28.4138 65.3163 26.9051 64.9872 25.3073C64.0706 21.3039 59.4988 18.7176 55.5913 19.9158C53.5546 20.5011 52.5936 21.3817 51.4205 22.6226C51.8192 24.3047 51.8947 26.0472 51.6428 27.7574C51.4757 28.8432 51.1636 29.9016 50.7151 30.9042C50.3818 31.6512 49.9738 32.3626 49.4976 33.0275C50.0493 33.6953 50.7195 34.2556 51.4744 34.68C51.7828 34.2384 52.041 33.7636 52.2439 33.2645L52.255 33.2722Z"
            fill="#BE854B" />
        <path
            d="M50.369 23.7402C50.7537 23.3388 51.0949 22.97 51.4206 22.6276C51.0734 21.1416 50.5084 19.7153 49.7439 18.3949C49.667 18.2622 49.5892 18.1304 49.5088 18.0003C48.3571 16.1373 46.7727 14.4684 44.754 13.6229C43.1748 12.9614 41.3074 12.8792 39.7453 13.5228L41.3544 13.4552C41.3544 13.4552 41.5383 13.8523 38.2704 14.4462C38.237 14.4761 38.2045 14.507 38.1721 14.5378C37.9096 14.7945 37.2538 15.5108 37.9651 15.7153C38.0763 15.7479 38.1302 15.8009 38.1413 15.8591C40.0454 15.8463 41.4391 15.8822 41.463 16.0097C41.5289 16.3521 41.8187 16.655 38.0789 17.0906C37.6248 17.1428 36.993 17.2053 36.2448 17.2746C36.1012 17.5373 35.9584 17.8018 35.8173 18.0645C35.4685 18.9434 35.3616 20.2947 37.6984 20.6987C38.3892 20.8176 38.7432 20.9118 38.8672 20.9854C39.7846 21.2079 39.8009 21.4133 38.3097 21.5973C36.6065 21.8035 33.8226 22.0157 31.0702 22.222L29.2747 22.5823C29.2747 22.5823 28.2923 23.2994 29.5389 23.7256C34.4356 24.1347 37.6385 24.655 32.446 25.2139C25.5553 25.955 22.6739 26.1116 26.6318 27.1257C30.4709 28.1099 30.4555 28.5703 24.2796 29.427C24.0967 29.6709 23.7991 30.1878 24.1882 30.6063C24.5683 30.7944 24.9704 30.9341 25.3852 31.0222C26.973 31.3585 28.618 31.0513 30.2152 30.7654C31.8124 30.4796 33.4917 30.151 35.041 30.6319C37.2119 31.3055 38.6321 32.8981 39.5418 34.4052C40.2116 35.5085 41.2894 36.3026 42.541 36.6148C43.7926 36.927 45.1168 36.732 46.2255 36.0723L46.2734 36.044C47.5415 35.2685 48.6385 34.2426 49.4977 33.029C49.0062 32.4346 48.6333 31.7513 48.399 31.0162C47.5987 28.4642 48.7102 25.6974 50.369 23.7402Z"
            fill="#3FA7C9" />
        <path
            d="M51.6427 27.7549C51.8946 26.0447 51.8191 24.3021 51.4204 22.6201C51.0946 22.9624 50.7535 23.3356 50.3687 23.7327C48.7117 25.6899 47.5976 28.4567 48.4022 31.007C48.6365 31.742 49.0094 32.4253 49.5009 33.0198C49.9772 32.3549 50.3851 31.6436 50.7184 30.8966C51.1653 29.8954 51.4762 28.8388 51.6427 27.7549Z"
            fill="#58694F" />
        <path
            d="M68.6117 36.35C68.2799 33.3547 67.0213 31.199 64.7717 29.7715C64.1732 31.5182 62.9446 33.0064 61.1464 34.0924C59.032 35.2187 56.5387 35.7775 54.1472 35.567C53.2066 35.449 52.2984 35.1469 51.4744 34.6778C51.4052 34.7753 51.3342 34.8721 51.2581 34.9662C50.6164 35.7364 49.8791 36.4214 49.0641 37.0047C47.7773 37.9461 46.2537 38.2482 44.6753 38.4938C42.483 38.8361 40.6413 39.8537 39.3485 41.4386C37.6222 43.5559 36.8869 45.9949 37.1631 48.6881C37.5529 52.4887 40.1163 55.3086 43.8519 56.048C45.1686 56.3047 46.5692 56.2285 47.9235 56.1507L48.3878 56.125C49.436 56.0685 50.9794 56.0728 52.2705 56.7668C52.4979 56.8892 52.727 57.0176 52.9485 57.1417L53.2597 57.3128C54.494 58.1682 55.9221 58.7015 57.4144 58.8647C58.9068 59.0278 60.4162 58.8154 61.8059 58.2469C63.1955 57.6783 64.4213 56.7716 65.3722 55.6088C66.3231 54.4461 66.969 53.0642 67.2513 51.5884C67.3518 51.0567 67.405 50.5172 67.4103 49.9761C67.4497 49.0702 67.3941 48.1626 67.2445 47.2683C67.1855 46.8943 67.1042 46.5221 67.0256 46.1618C66.9768 45.9393 66.929 45.7142 66.8845 45.4865C66.8845 45.4865 66.616 43.8237 67.4317 41.6799C68.2619 40.1327 68.834 38.3646 68.6117 36.35Z"
            fill="#0F84A5" />
        <path
            d="M61.1467 34.0923C62.9423 33.0063 64.1752 31.5181 64.772 29.7714C64.5874 29.6538 64.3958 29.5412 64.1975 29.4333C62.8769 28.7217 61.4041 28.34 59.9044 28.3208C58.7003 28.2993 57.5038 28.5156 56.3834 28.9575C53.4763 30.2686 52.2554 33.2759 52.2554 33.2759L52.2417 33.2656C52.0388 33.7647 51.7806 34.2395 51.4722 34.6811C52.2962 35.1502 53.2044 35.4523 54.145 35.5703C56.539 35.7774 59.0323 35.2168 61.1467 34.0923Z"
            fill="#3F5A49" />
        <path
            d="M38.326 39.0866C38.6731 38.4642 38.8348 37.7553 38.792 37.0438C38.7978 36.7459 38.7358 36.4506 38.6107 36.1803C38.5492 36.0096 38.474 35.8442 38.3858 35.6857C37.6702 34.2779 36.5826 33.0147 35.1769 32.2684C32.5264 30.8538 30.6607 34.4311 31.355 36.6664C31.8774 38.3078 34.268 40.1504 35.9772 40.283C36.8887 40.3558 37.8369 39.8577 38.326 39.0866Z"
            fill="#BE854B" />
    </g>
    <defs>
        <clipPath id="clip0_697_1337">
            <rect width="160.893" height="45.4085" fill="white"
                transform="translate(78.4414 13.2749)" />
        </clipPath>
        <clipPath id="clip1_697_1337">
            <rect width="44.6596" height="45.8452" fill="white" transform="translate(24 13.0771)" />
        </clipPath>
    </defs>
</svg>
    